<?xml version="1.0" encoding="UTF-8" standalone="no"?>
<!DOCTYPE svg PUBLIC "-//W3C//DTD SVG 1.0//EN" "http://www.w3.org/TR/2001/PR-SVG-20010719/DTD/svg10.dtd">
<svg width="39cm" height="21cm" viewBox="79 59 778 404" xmlns="http://www.w3.org/2000/svg" xmlns:xlink="http://www.w3.org/1999/xlink">
  <g>
    <path style="fill: none; fill-opacity:0; stroke-width: 0.2; stroke: #805d00" d="M 816.795 123.525 L 816.306,122.103 L 815.74,120.706 L 815.081,119.335 L 814.327,117.989 L 813.461,116.668 L 812.538,115.399 L 811.539,114.154 L 810.409,112.91 L 809.241,111.793 L 808.035,110.675 L 806.679,109.558 L 805.322,108.568 L 803.834,107.603 L 802.308,106.714 L 800.744,105.85 L 799.105,105.089 L 797.429,104.352 L 795.676,103.692 L 793.906,103.082 L 792.135,102.574 L 790.27,102.143 L 788.386,101.787 L 786.502,101.457 L 784.599,101.254 L 782.696,101.102 L 780.737,101 L 778.815,101 L 776.894,101.025 L 774.972,101.178 L 773.05,101.406 L 771.167,101.66 L 769.283,102.041 L 767.436,102.447 L 765.628,102.981 L 763.819,103.539 L 762.105,104.174 L 760.39,104.885 L 758.751,105.596 L 757.15,106.434 L 755.624,107.349 L 754.136,108.288 L 752.723,109.253 L 751.385,110.345 L 750.104,111.437 L 748.898,112.58 L 747.768,113.799 L 746.751,114.992 L 745.771,116.262 L 744.923,117.608 L 744.132,118.929 L 743.454,120.3 L 742.832,121.671 L 742.342,123.093 L 741.947,124.515"/>
    <path style="fill: none; fill-opacity:0; stroke-width: 0.2; stroke: #805d00" d="M 747.523 122.738 L 746.355,121.824 L 745.168,120.985 L 743.925,120.198 L 742.625,119.487 L 741.287,118.802 L 739.95,118.243 L 738.574,117.684 L 737.162,117.227 L 735.749,116.872 L 734.279,116.541 L 732.828,116.313 L 731.378,116.161 L 729.908,116.059 L 728.401,116.059 L 726.969,116.084 L 725.5,116.237 L 723.993,116.414 L 722.561,116.694 L 721.148,117.049 L 719.697,117.506 L 718.322,117.964 L 716.966,118.573 L 715.628,119.208 L 714.309,119.868 L 713.047,120.655 L 711.841,121.468 L 710.673,122.357 L 709.543,123.246 L 708.432,124.287 L 707.433,125.328 L 706.435,126.42 L 705.511,127.588 L 704.664,128.756 L 703.854,130.001 L 703.138,131.296 L 702.478,132.565 L 701.857,133.937 L 701.31,135.283 L 700.858,136.705 L 700.481,138.101 L 700.142,139.549 L 699.916,140.996 L 699.728,142.444 L 699.652,143.866 L 699.615,145.39 L 699.709,146.837 L 699.822,148.285 L 700.01,149.732"/>
    <path style="fill: none; fill-opacity:0; stroke-width: 0.2; stroke: #805d00" d="M 693.36 196.179 L 693.304,197.474 L 693.417,198.769 L 693.53,200.064 L 693.775,201.385 L 694.057,202.68 L 694.434,203.975 L 694.886,205.245 L 695.414,206.463 L 695.998,207.657 L 696.619,208.851 L 697.354,210.019 L 698.126,211.136 L 699.012,212.228 L 699.916,213.295 L 700.896,214.285 L 701.913,215.25 L 703.006,216.164 L 704.136,217.028 L 705.323,217.84 L 706.566,218.602 L 707.848,219.338 L 709.147,219.973 L 710.504,220.557 L 711.917,221.116 L 713.311,221.599 L 714.743,221.98 L 716.212,222.386 L 717.719,222.614 L 719.208,222.894 L 720.696,223.021 L 722.222,223.148 L 723.748,223.148 L 725.255,223.097 L 726.762,223.021 L 728.269,222.843 L 729.758,222.589 L 731.265,222.259 L 732.697,221.929 L 734.166,221.472 L 735.56,220.989 L 736.917,220.456 L 738.273,219.846 L 739.573,219.161 L 740.873,218.45 L 742.097,217.662 L 743.247,216.85"/>
    <path style="fill: none; fill-opacity:0; stroke-width: 0.2; stroke: #805d00" d="M 844.018 151.789 L 846.448,147.701 L 846.901,146.583 L 847.259,145.517 L 847.541,144.374 L 847.767,143.231 L 847.918,142.114 L 847.974,140.996 L 847.993,139.828 L 847.937,138.66 L 847.805,137.517 L 847.598,136.4 L 847.296,135.283 L 846.938,134.165 L 846.543,133.073 L 846.053,131.981 L 845.469,130.966 L 844.828,129.899 L 844.169,128.909 L 843.396,127.944 L 842.586,127.004 L 841.72,126.064 L 840.797,125.226 L 839.817,124.414 L 838.781,123.576 L 837.707,122.839 L 836.558,122.103 L 835.39,121.468 L 834.184,120.859 L 832.922,120.325 L 831.641,119.817 L 830.341,119.36 L 829.003,118.929 L 827.628,118.598 L 826.272,118.294 L 824.877,118.091 L 823.464,117.938 L 822.033,117.811 L 820.601,117.71 L 819.15,117.71 L 817.737,117.811 L 816.306,117.938 L 814.893,118.091 L 813.498,118.294 L 812.123,118.598 L 810.748,118.929"/>
    <path style="fill: none; fill-opacity:0; stroke-width: 0.2; stroke: #805d00" d="M 849.802 183.659 L 853.57,179.52 L 854.135,178.301 L 854.7,177.031 L 855.133,175.787 L 855.491,174.492 L 855.736,173.222 L 855.925,171.952 L 856,170.632 L 855.981,169.362 L 855.868,168.016 L 855.661,166.746 L 855.397,165.451 L 855.039,164.182 L 854.568,162.937 L 854.041,161.718 L 853.381,160.499 L 852.684,159.331 L 851.855,158.163 L 851.008,157.046 L 850.047,155.954 L 844.018,151.789"/>
    <path style="fill: none; fill-opacity:0; stroke-width: 0.2; stroke: #805d00" d="M 812.99 230.004 L 814.403,230.537 L 815.797,231.071 L 817.229,231.452 L 818.66,231.756 L 820.13,231.934 L 821.562,232.061 L 823.012,232.087 L 824.463,231.934 L 825.932,231.782 L 827.364,231.477 L 828.777,231.122 L 830.19,230.639 L 831.584,230.03 L 832.941,229.395 L 834.297,228.633 L 835.597,227.82 L 836.859,226.881 L 838.084,225.916 L 839.29,224.798 L 840.439,223.63 L 841.531,222.386 L 842.586,221.091 L 843.604,219.719 L 844.546,218.272 L 845.45,216.723 L 846.241,215.199 L 847.032,213.523 L 847.73,211.898 L 848.351,210.196 L 848.916,208.444 L 849.425,206.641 L 849.877,204.787 L 850.216,202.984 L 850.518,201.131 L 850.744,199.251 L 850.876,197.347 L 850.913,195.442 L 850.913,193.538 L 850.819,191.633 L 850.687,189.728 L 850.442,187.824 L 850.122,185.995 L 849.802,184.167"/>
    <path style="fill: none; fill-opacity:0; stroke-width: 0.2; stroke: #805d00" d="M 701.122 150.697 L 700.123,150.824 L 699.087,150.976 L 698.07,151.23 L 697.09,151.51 L 696.092,151.865 L 695.112,152.246 L 694.17,152.729 L 693.247,153.237 L 692.324,153.821 L 691.476,154.455 L 690.591,155.116 L 689.781,155.852 L 688.989,156.589 L 688.236,157.427 L 687.482,158.29 L 686.823,159.179 L 686.163,160.118 L 685.579,161.109 L 685.014,162.099 L 684.524,163.14 L 684.053,164.182 L 683.601,165.274 L 683.225,166.391 L 682.885,167.508 L 682.603,168.702 L 682.396,169.87 L 682.188,171.038 L 682.075,172.232 L 682,173.451 L 682,174.644 L 682,175.838 L 682.113,177.031 L 682.226,178.25 L 682.396,179.393 L 682.641,180.561 L 682.885,181.729 L 683.225,182.872 L 683.639,183.989 L 684.053,185.081 L 684.524,186.173 L 685.052,187.189 L 685.598,188.179 L 686.182,189.195 L 686.823,190.084 L 687.52,190.998 L 688.255,191.862 L 689.008,192.7 L 689.818,193.411 L 690.61,194.147 L 691.476,194.807 L 692.362,195.442 L 693.266,196.052"/>
    <path style="fill: none; fill-opacity:0; stroke-width: 0.2; stroke: #805d00" d="M 736.031 215.91 L 736.276,217.307 L 736.653,218.653 L 737.124,220.05 L 737.746,221.421 L 738.443,222.741 L 739.215,224.011 L 740.119,225.281 L 741.099,226.551 L 742.21,227.744 L 743.397,228.938 L 744.641,230.03 L 746.016,231.147 L 747.485,232.213 L 748.974,233.204 L 750.575,234.143 L 752.233,235.032 L 754.004,235.87 L 755.775,236.658 L 757.64,237.343 L 759.543,238.054 L 761.502,238.613 L 763.499,239.172 L 765.534,239.603 L 767.644,240.01 L 769.735,240.365 L 771.864,240.619 L 773.992,240.822 L 776.14,240.949 L 778.307,241 L 780.473,240.975 L 782.621,240.873 L 784.769,240.695 L 786.935,240.518 L 789.045,240.187 L 791.117,239.832 L 793.19,239.4 L 795.206,238.918 L 797.184,238.308 L 799.124,237.699 L 800.989,237.013 L 802.835,236.251 L 804.606,235.464 L 806.302,234.601 L 807.941,233.686 L 809.486,232.721 L 810.993,231.706 L 812.387,230.614 L 813.706,229.522 L 814.949,228.328 L 816.061,227.185 L 817.116,225.916 L 818.058,224.671 L 818.887,223.376 L 819.659,222.081"/>
  </g>
  <g>
    <rect style="fill: #ffffff" x="400" y="60" width="140" height="110"/>
    <rect style="fill: none; fill-opacity:0; stroke-width: 2; stroke: #000000" x="400" y="60" width="140" height="110"/>
  </g>
  <g>
    <rect style="fill: #ffffff" x="340" y="280" width="260" height="182"/>
    <rect style="fill: none; fill-opacity:0; stroke-width: 2; stroke: #000000" x="340" y="280" width="260" height="182"/>
  </g>
  <g>
    <rect style="fill: #ffffff" x="80" y="80" width="200.6" height="176.8"/>
    <rect style="fill: none; fill-opacity:0; stroke-width: 2; stroke: #000000" x="80" y="80" width="200.6" height="176.8"/>
  </g>
  <text font-size="16.9333" style="fill: #000000;text-anchor:middle;font-family:monospace;font-style:normal;font-weight:normal" x="470" y="115">
    <tspan x="470" y="115">Raspberry Pi</tspan>
    <tspan x="470" y="136.167">Zero W</tspan>
  </text>
  <text font-size="16.9333" style="fill: #000000;text-anchor:middle;font-family:monospace;font-style:normal;font-weight:normal" x="180" y="160">
    <tspan x="180" y="160">Projector</tspan>
    <tspan x="180" y="181.167">Optima HD142X</tspan>
  </text>
  <text font-size="16.9333" style="fill: #000000;text-anchor:middle;font-family:monospace;font-style:normal;font-weight:normal" x="460" y="360">
    <tspan x="460" y="360">Denon AVR</tspan>
    <tspan x="460" y="381.167">X4500</tspan>
    <tspan x="460" y="402.333"></tspan>
  </text>
  <g>
    <line style="fill: none; fill-opacity:0; stroke-width: 2; stroke: #000000" x1="470" y1="171.008" x2="470" y2="269.256"/>
    <polygon style="fill: #000000" points="470,276.756 465,266.756 470,269.256 475,266.756 "/>
    <polygon style="fill: none; fill-opacity:0; stroke-width: 2; stroke: #000000" points="470,276.756 465,266.756 470,269.256 475,266.756 "/>
  </g>
  <g>
    <line style="fill: none; fill-opacity:0; stroke-width: 2; stroke: #000000" x1="339.004" y1="279.389" x2="289.578" y2="244.823"/>
    <polygon style="fill: #000000" points="283.432,240.525 294.492,242.158 289.578,244.823 288.761,250.353 "/>
    <polygon style="fill: none; fill-opacity:0; stroke-width: 2; stroke: #000000" points="283.432,240.525 294.492,242.158 289.578,244.823 288.761,250.353 "/>
  </g>
  <text font-size="12.8" style="fill: #000000;text-anchor:start;font-family:monospace;font-style:normal;font-weight:normal" x="260" y="280">
    <tspan x="260" y="280">HDMI</tspan>
    <tspan x="260" y="296">out</tspan>
  </text>
  <text font-size="12.8" style="fill: #000000;text-anchor:start;font-family:monospace;font-style:normal;font-weight:normal" x="480" y="220">
    <tspan x="480" y="220">HDMI</tspan>
    <tspan x="480" y="236">in</tspan>
  </text>
  <g>
    <line style="fill: none; fill-opacity:0; stroke-width: 2; stroke-dasharray: 4; stroke: #4747ea" x1="540.994" y1="128.229" x2="680.026" y2="154.137"/>
    <polygon style="fill: #4747ea" points="687.4,155.51 676.653,158.594 680.026,154.137 678.485,148.763 "/>
    <polygon style="fill: none; fill-opacity:0; stroke-width: 2; stroke: #4747ea" points="687.4,155.51 676.653,158.594 680.026,154.137 678.485,148.763 "/>
  </g>
  <g>
    <line style="fill: none; fill-opacity:0; stroke-width: 2; stroke-dasharray: 4; stroke: #4747ea" x1="601" y1="285.59" x2="696.893" y2="223.07"/>
    <polygon style="fill: #4747ea" points="703.176,218.974 697.53,228.624 696.893,223.07 692.068,220.247 "/>
    <polygon style="fill: none; fill-opacity:0; stroke-width: 2; stroke: #4747ea" points="703.176,218.974 697.53,228.624 696.893,223.07 692.068,220.247 "/>
  </g>
  <text font-size="12.8" style="fill: #000000;text-anchor:start;font-family:sans-serif;font-style:normal;font-weight:normal" x="620" y="140">
    <tspan x="620" y="140"></tspan>
  </text>
  <text font-size="16.9333" style="fill: #000000;text-anchor:middle;font-family:monospace;font-style:normal;font-weight:normal" x="767.104" y="172.645">
    <tspan x="767.104" y="172.645">Wifi</tspan>
  </text>
</svg>
